<?xml version="1.0" encoding="utf-8"?>
<!-- Generator: Adobe Illustrator 17.1.0, SVG Export Plug-In . SVG Version: 6.00 Build 0)  -->
<!DOCTYPE svg PUBLIC "-//W3C//DTD SVG 1.1//EN" "http://www.w3.org/Graphics/SVG/1.1/DTD/svg11.dtd">
<svg version="1.1" id="Layer_1" xmlns="http://www.w3.org/2000/svg" xmlns:xlink="http://www.w3.org/1999/xlink" x="0px" y="0px"
	 viewBox="0 0 276.123 51.948" enable-background="new 0 0 276.123 51.948" xml:space="preserve">
<path fill="#E3D89F" d="M91.004,43.967l4.969-6.851c3.388,3.688,8.884,7.001,15.885,7.001c7.228,0,10.013-3.538,10.013-6.926
	c0-10.54-29.211-3.99-29.211-22.436C92.66,6.399,99.887,0,110.955,0c7.754,0,14.154,2.56,18.747,7.077l-4.969,6.55
	c-3.99-3.99-9.336-5.797-14.606-5.797c-5.12,0-8.432,2.56-8.432,6.249c0,9.411,29.211,3.614,29.211,22.285
	c0,8.356-5.947,15.584-19.424,15.584C102.221,51.948,95.521,48.635,91.004,43.967z"/>
<path fill="#E3D89F" d="M140.845,51.044V0.828h22.134c10.54,0,16.338,7.152,16.338,15.735c0,8.508-5.873,15.66-16.338,15.66h-13.325
	v18.821H140.845z M170.282,16.563c0-4.818-3.538-7.98-8.507-7.98h-12.121v15.886h12.121
	C166.743,24.468,170.282,21.306,170.282,16.563z"/>
<path fill="#E3D89F" d="M188.578,51.044V0.828h34.406v7.754h-25.597v12.949h25.071v7.755h-25.071V43.29h25.597v7.755H188.578z"/>
<path fill="#E3D89F" d="M270.387,38.613c-3.244,3.258-7.733,5.276-12.694,5.276c-9.894,0-17.915-8.021-17.915-17.915
	c0-9.894,8.021-17.915,17.915-17.915c4.885,0,9.308,1.961,12.54,5.131l5.683-5.718C271.227,2.853,264.794,0,257.692,0
	c-14.345,0-25.974,11.629-25.974,25.974s11.629,25.974,25.974,25.974c7.206,0,13.725-2.936,18.431-7.675L270.387,38.613z"/>
<path fill="#FFFFFF" d="M71.937,4.366l-4.572,6.843c4.747,3.178,7.874,8.586,7.874,14.727c0,9.783-7.931,17.714-17.714,17.714
	s-17.714-7.931-17.714-17.714S47.741,8.222,57.525,8.222V0C43.181,0,31.554,11.627,31.554,25.971
	c0,14.343,11.627,25.971,25.971,25.971c14.343,0,25.971-11.628,25.971-25.971C83.495,16.96,78.905,9.024,71.937,4.366z"/>
<path fill="#FFFFFF" d="M13.326,51.044V12.197l-8.207,8.582L0,15.434L14.455,0.828h7.68v50.216H13.326z"/>
</svg>
